<?xml version="1.0" encoding="utf-8"?>
<!-- Svg Vector Icons : http://www.onlinewebfonts.com/icon -->
<!DOCTYPE svg PUBLIC "-//W3C//DTD SVG 1.1//EN" "http://www.w3.org/Graphics/SVG/1.1/DTD/svg11.dtd">
<svg version="1.1" xmlns="http://www.w3.org/2000/svg" xmlns:xlink="http://www.w3.org/1999/xlink" x="0px" y="0px" viewBox="0 0 1000 1000" enable-background="new 0 0 1000 1000" xml:space="preserve">
<metadata> Svg Vector Icons : http://www.onlinewebfonts.com/icon </metadata>
<g><g transform="translate(0.000000,511.000000) scale(0.100000,-0.100000)"><path d="M1281.6,4980.6c-7.4-17.2-9.8-2222.5-7.4-4901.2l7.4-4869.3H4998h3716.4l7.3,3655.1l4.9,3655.1L7482.9,3763.8L6236.8,5010H3764.1C1809,5010,1289,5002.6,1281.6,4980.6z M5984.1,3447.4l7.4-1172.6l1172.5-7.4l1170.1-4.9v-3336.2v-3336.2H4998H1661.8V103.9v4513.6h2158.7h2158.7L5984.1,3447.4z M7230.3,3501.4l846.3-846.3h-853.7h-851.2v846.3c0,466.1,2.4,846.3,7.4,846.3C6381.5,4347.7,6764.2,3967.4,7230.3,3501.4z"/></g></g>
</svg>